<?xml version="1.0" standalone="no"?><!DOCTYPE svg PUBLIC "-//W3C//DTD SVG 1.1//EN" "http://www.w3.org/Graphics/SVG/1.1/DTD/svg11.dtd"><svg t="1726044849556" class="icon" viewBox="0 0 1024 1024" version="1.1" xmlns="http://www.w3.org/2000/svg" p-id="2035" xmlns:xlink="http://www.w3.org/1999/xlink" width="200" height="200"><path d="M103.48862 174.46039063L347.31422 419.85484156a8.71583906 8.71583906 0 0 1 2.5711725 6.14466657v401.23365375c0 27.4984725 14.38113469 52.99230188 37.91389969 67.19911968l143.11407843 86.28680813a78.4425525 78.4425525 0 0 0 118.97120438-67.1991197V427.87341312a8.71583906 8.71583906 0 0 1 2.963385-6.53687906l278.29674375-243.08475375A78.4425525 78.4425525 0 0 0 879.50335719 40.71583906H159.13925281a78.4425525 78.4425525 0 0 0-55.65063281 133.74455156zM152.95100656 125.25947844a8.71583906 8.71583906 0 0 1 6.18824625-14.86050563h720.36410438a8.71583906 8.71583906 0 0 1 5.75245406 15.25271907L607.00264625 368.82360313a78.4425525 78.4425525 0 0 0-26.84478469 59.09338968v485.69013563a8.71583906 8.71583906 0 0 1-13.248075 7.49562093l-143.11407843-86.28680718a8.71583906 8.71583906 0 0 1-4.18360313-7.49562188V426.04308688a78.4425525 78.4425525 0 0 0-22.79191875-55.30199907L152.90742781 125.30305813z" p-id="2036"></path><path d="M736.70522802 584.95034815h163.42198331a32.68439648 32.68439648 0 1 0 0-65.36879385h-163.4219833a32.68439648 32.68439648 0 1 0-1e-8 65.36879385zM735.15271836 707.51683584h163.42198418a32.68439648 32.68439648 0 1 0-1e-8-65.36879385h-163.42198417a32.68439648 32.68439648 0 1 0 0 65.36879385zM728.0438627 830.08332354h163.42198329a32.68439648 32.68439648 0 1 0 0-65.36879385h-163.42198329a32.68439648 32.68439648 0 1 0 0 65.36879385z" p-id="2037"></path></svg>